<?xml version="1.0" encoding="UTF-8" standalone="no"?>
<svg
   version="1.0"
   width="502pt"
   height="502pt"
   viewBox="0 0 502 502"
   preserveAspectRatio="xMidYMid"
   id="svg28"
   sodipodi:docname="icon.svg"
   inkscape:version="1.2.1 (9c6d41e410, 2022-07-14, custom)"
   xmlns:inkscape="http://www.inkscape.org/namespaces/inkscape"
   xmlns:sodipodi="http://sodipodi.sourceforge.net/DTD/sodipodi-0.dtd"
   xmlns="http://www.w3.org/2000/svg"
   xmlns:svg="http://www.w3.org/2000/svg"
   xmlns:rdf="http://www.w3.org/1999/02/22-rdf-syntax-ns#"
   xmlns:cc="http://creativecommons.org/ns#"
   xmlns:dc="http://purl.org/dc/elements/1.1/">
  <defs
     id="defs32" />
  <sodipodi:namedview
     pagecolor="#ffffff"
     bordercolor="#666666"
     borderopacity="1"
     objecttolerance="10"
     gridtolerance="10"
     guidetolerance="10"
     inkscape:pageopacity="0"
     inkscape:pageshadow="2"
     inkscape:window-width="1920"
     inkscape:window-height="1007"
     id="namedview30"
     showgrid="false"
     inkscape:zoom="0.8990257"
     inkscape:cx="25.027093"
     inkscape:cy="248.0463"
     inkscape:window-x="0"
     inkscape:window-y="0"
     inkscape:window-maximized="1"
     inkscape:current-layer="svg28"
     inkscape:showpageshadow="0"
     inkscape:pagecheckerboard="0"
     inkscape:deskcolor="#d1d1d1"
     inkscape:document-units="pt" />
  <metadata
     id="metadata2">
Created by potrace 1.16, written by Peter Selinger 2001-2019
<rdf:RDF>
  <cc:Work
     rdf:about="">
    <dc:format>image/svg+xml</dc:format>
    <dc:type
       rdf:resource="http://purl.org/dc/dcmitype/StillImage" />
  </cc:Work>
</rdf:RDF>
</metadata>
  <rect
     style="fill:#ffffff;stroke:#062b04;stroke-width:0.679891"
     id="rect449"
     width="501.3201"
     height="501.3201"
     x="0.33994561"
     y="0.33994561" />
  <g
     transform="matrix(0.08562019,0,0,-0.08562019,21.64604,466.53729)"
     fill="#000000"
     stroke="none"
     id="g26">
    <path
       d="m 2485,5013 c -294,-24 -545,-78 -795,-170 -155,-57 -406,-185 -550,-281 C 518,4148 114,3513 25,2810 1,2626 8,2285 39,2115 88,1841 198,1534 314,1345 l 31,-50 5,-377 c 5,-361 6,-378 26,-404 11,-15 33,-37 48,-48 26,-20 43,-21 394,-26 l 367,-5 108,-63 c 285,-167 610,-279 987,-338 91,-15 174,-19 395,-19 244,0 298,3 425,23 355,57 720,186 994,351 l 84,51 h 373 c 343,0 377,2 415,19 24,11 50,33 62,53 22,35 22,43 22,441 v 405 l 59,123 c 217,454 286,937 205,1429 -110,662 -505,1254 -1104,1655 -231,155 -576,304 -860,373 -274,67 -614,96 -865,75 z m 461,-158 c 496,-50 926,-219 1334,-524 108,-80 335,-306 429,-425 519,-663 633,-1550 297,-2293 l -43,-94 -673,1 c -370,0 -676,2 -680,5 -4,2 -7,18 -8,35 -3,121 -79,237 -194,297 -48,25 -62,28 -158,28 -91,0 -111,-3 -150,-24 -123,-65 -187,-158 -205,-293 l -6,-48 h -103 -103 l -6,55 c -12,114 -89,228 -189,278 -95,48 -217,51 -315,7 -102,-45 -188,-167 -200,-285 l -6,-55 h -754 c -642,0 -758,-2 -782,-15 l -29,-14 -41,91 c -137,298 -201,594 -201,928 0,211 17,358 64,542 125,495 402,919 817,1252 529,423 1215,622 1905,551 z M 2426,1704 c 58,-40 92,-95 93,-156 l 1,-28 h -195 -195 v 31 c 0,61 53,138 115,165 17,7 55,13 86,14 45,0 64,-5 95,-26 z m 914,6 c 21,-11 50,-35 64,-53 24,-32 50,-113 40,-129 -7,-10 -381,-11 -388,0 -2,4 0,28 5,54 11,51 56,109 104,133 43,21 128,19 175,-5 z M 4900,980 V 590 H 2700 500 v 390 390 H 2700 4900 Z M 3810,409 C 3487,255 3147,175 2770,163 c -401,-12 -728,44 -1090,188 -69,27 -141,58 -160,69 -35,19 -25,19 1160,20 h 1195 z"
       id="path4" />
    <path
       d="m 679,3881 c -23,-18 -24,-26 -27,-163 -3,-156 4,-184 50,-206 19,-9 33,-9 54,-2 46,18 53,37 54,138 v 92 h 179 179 l 60,-152 c 33,-84 119,-306 192,-493 72,-187 148,-380 167,-430 19,-49 82,-211 140,-360 58,-148 107,-276 110,-283 17,-42 18,-42 950,-42 950,0 924,-1 950,50 14,27 22,47 267,692 183,481 188,500 135,528 -19,11 -136,28 -874,129 -121,17 -364,50 -540,75 -826,115 -954,130 -982,120 -56,-19 -66,-99 -16,-131 16,-11 90,-26 197,-40 94,-13 317,-44 496,-69 301,-41 568,-78 1013,-140 407,-56 542,-75 545,-78 3,-3 -246,-666 -342,-911 l -24,-60 -820,-3 c -648,-2 -822,1 -829,10 -6,7 -38,86 -38,86 l -45,94 c 0,0 -580,1520 -603,1546 -20,22 -23,22 -298,22 -257,0 -278,-1 -300,-19 z"
       id="path6"
       sodipodi:nodetypes="cccccccccccccsccccccccccscccccccsc" />
    <path
       d="m 2280,3047 c -113,-27 -188,-89 -239,-196 -24,-51 -26,-67 -26,-186 0,-125 1,-133 31,-195 56,-118 130,-177 248,-199 221,-41 384,32 446,197 12,30 19,56 18,57 -5,4 -202,64 -203,62 -1,-1 -14,-27 -28,-58 -33,-69 -75,-94 -143,-86 -101,11 -129,58 -129,218 0,107 2,118 25,152 62,92 197,88 247,-6 l 18,-34 98,23 c 54,12 101,25 104,27 7,8 -45,104 -77,140 -48,55 -135,88 -243,93 -55,2 -114,-2 -147,-9 z"
       id="path8" />
    <path
       d="m 3114,3047 c -184,-47 -275,-196 -262,-428 10,-161 88,-280 217,-331 46,-18 77,-22 176,-22 112,-1 124,1 177,27 71,35 131,101 158,174 11,31 19,57 18,58 -5,4 -202,64 -204,62 0,-1 -12,-27 -26,-58 -31,-67 -75,-94 -144,-86 -101,11 -129,58 -129,218 0,107 2,118 25,152 61,90 198,88 245,-3 9,-17 23,-30 35,-30 22,0 180,37 187,44 10,9 -61,128 -91,153 -61,52 -129,75 -234,79 -60,2 -117,-1 -148,-9 z"
       id="path10" />
    <path
       d="m 2655,1327 c -108,-28 -175,-82 -219,-176 -18,-39 -21,-65 -21,-166 0,-112 2,-124 29,-178 60,-124 135,-169 293,-175 122,-5 185,12 246,67 38,34 87,119 87,151 0,10 -28,23 -88,41 l -87,26 -21,-47 c -28,-62 -56,-80 -120,-80 -99,0 -142,73 -132,220 9,114 65,177 152,166 39,-5 91,-44 101,-77 5,-16 11,-16 98,3 51,11 93,21 95,23 7,7 -41,88 -74,124 -19,21 -56,48 -83,59 -62,27 -188,36 -256,19 z"
       id="path12" />
    <path
       d="M 940,986 V 640 h 218 c 119,0 237,5 262,11 98,22 150,87 150,186 0,72 -29,120 -89,148 l -41,18 30,18 c 51,31 72,75 67,142 -4,68 -25,102 -88,137 -43,24 -51,25 -276,28 l -233,4 z m 347,193 c 33,-12 43,-26 43,-61 0,-45 -23,-58 -106,-58 h -74 v 58 c 0,32 3,62 7,65 10,11 99,8 130,-4 z m 56,-278 c 23,-19 21,-67 -3,-91 -17,-17 -33,-20 -105,-20 h -85 v 64 c 0,59 2,65 23,68 44,6 154,-7 170,-21 z"
       id="path14" />
    <path
       d="m 1680,1265 v -65 h 95 96 l -3,63 -3,62 -92,3 -93,3 z"
       id="path16" />
    <path
       d="m 2118,1273 -88,-47 v -43 c 0,-43 0,-43 -35,-43 h -35 v -70 -70 h 34 34 l 4,-137 c 5,-158 17,-195 73,-219 35,-14 139,-19 194,-8 27,6 31,11 31,39 0,18 -3,47 -6,64 -6,29 -9,31 -38,26 -55,-10 -61,2 -61,122 v 108 l 53,3 53,3 -3,67 -3,67 -52,3 -53,3 v 90 c 0,49 -3,89 -7,89 -5,0 -47,-21 -95,-47 z"
       id="path18" />
    <path
       d="m 4358,1272 -88,-46 v -43 c 0,-41 -1,-43 -29,-43 -17,0 -32,-4 -35,-9 -3,-5 -25,-2 -48,6 -55,19 -106,5 -142,-37 l -25,-30 -3,32 -3,33 -87,3 -88,3 V 890 640 h 95 95 v 118 c 1,137 10,185 42,219 19,21 29,24 63,19 l 40,-6 25,62 25,63 3,-57 3,-58 h 34 33 l 4,-137 c 4,-157 15,-190 72,-217 35,-16 135,-22 195,-10 27,6 31,11 31,39 0,18 -3,47 -6,65 -6,29 -9,31 -38,26 -55,-10 -61,1 -61,121 v 108 l 53,3 53,3 -3,67 -3,67 -52,3 -53,3 v 90 c 0,49 -3,89 -7,89 -5,0 -47,-22 -95,-48 z"
       id="path20" />
    <path
       d="m 3310,1137 c -31,-7 -70,-22 -87,-35 -28,-19 -63,-75 -63,-100 0,-9 90,-22 151,-22 17,0 38,10 53,25 19,19 36,25 69,25 46,0 67,-13 67,-42 0,-23 -22,-31 -162,-63 -126,-28 -170,-54 -188,-111 -14,-43 -8,-85 20,-124 51,-72 220,-82 312,-18 33,23 35,23 42,-7 6,-24 9,-25 97,-25 83,0 90,2 83,18 -4,9 -10,96 -14,192 -3,96 -11,186 -17,200 -26,60 -91,89 -216,95 -55,3 -114,0 -147,-8 z m 195,-299 c -11,-58 -15,-66 -38,-81 -53,-34 -119,-28 -130,12 -8,32 22,60 88,81 84,27 88,26 80,-12 z"
       id="path22" />
    <path
       d="M 1680,890 V 640 h 95 95 v 250 250 h -95 -95 z"
       id="path24" />
  </g>
</svg>
