<svg width="1380.7815" height="1380.7815" fill="none" version="1.1" viewBox="0 0 1380.7815 1380.7815" xmlns="http://www.w3.org/2000/svg" xmlns:xlink="http://www.w3.org/1999/xlink">
 <defs>
  <linearGradient id="ca" x2="1380.7815" y1="1380.7815" gradientUnits="userSpaceOnUse">
   <stop stop-color="#004ae4" offset="0"/>
   <stop stop-color="#00a7e5" offset="1"/>
  </linearGradient>
 </defs>
 <rect width="1380.7815" height="1380.7815" fill="url(#ca)"/>
 <path d="M 0,0 0,1380.7815 M 60,0 60,1380.7815 M 120,0 120,1380.7815 M 180,0 180,1380.7815 M 240,0 240,1380.7815 M 300,0 300,1380.7815 M 360,0 360,1380.7815 M 420,0 420,1380.7815 M 480,0 480,1380.7815 M 540,0 540,1380.7815 M 600,0 600,1380.7815 M 660,0 660,1380.7815 M 720,0 720,1380.7815 M 780,0 780,1380.7815 M 840,0 840,1380.7815 M 900,0 900,1380.7815 M 960,0 960,1380.7815 M 1020,0 l 0,1380.7815 M 1080,0 l 0,1380.7815 M 1140,0 l 0,1380.7815 M 1200,0 l 0,1380.7815 M 1260,0 l 0,1380.7815 M 1320,0 l 0,1380.7815 M 1380,0 l 0,1380.7815 M 0,0 1380.7815,0 M 0,60 1380.7815,60 M 0,120 1380.7815,120 M 0,180 1380.7815,180 M 0,240 1380.7815,240 M 0,300 1380.7815,300 M 0,360 1380.7815,360 M 0,420 1380.7815,420 M 0,480 1380.7815,480 M 0,540 1380.7815,540 M 0,600 1380.7815,600 M 0,660 1380.7815,660 M 0,720 1380.7815,720 M 0,780 1380.7815,780 M 0,840 1380.7815,840 M 0,900 1380.7815,900 M 0,960 1380.7815,960 M 0,1020 l 1380.7815,0 M 0,1080 l 1380.7815,0 M 0,1140 l 1380.7815,0 M 0,1200 l 1380.7815,0 M 0,1260 l 1380.7815,0 M 0,1320 l 1380.7815,0 M 0,1380 l 1380.7815,0" fill="none" stroke="#424242" stroke-width="1px"/>
 <path d="m858.39119 377.67646-24 16v-128l24-16.0001z" fill="none" stroke="#fff" stroke-width="5"/>
 <path d="m294.31329 409.72146 140.0799-80.045v128l-28.016 16.009z" fill="none" stroke="#fff" stroke-width="5"/>
 <path d="m410.39119 633.67646 24-16v-52.211l88 50.947v-46.736l24-16 144 82.4v-274.4l-256 148.21v-20.21l-24 16z" fill="none" stroke="#fff" stroke-width="5"/>
 <path d="m970.39119 505.67646 167.99891-96v443.935c0 71.771-38.457 138.04-100.7719 173.64804l-347.22701 198.417v-560.00104l168-95.999v127.999l112-63.999z" fill="none" stroke="#fff" stroke-width="5"/>
 <path d="m546.39119 393.67646-24-16v-128.0001l24 16.0001z" fill="none" stroke="#fff" stroke-width="5"/>
 <path d="m410.39119 505.67646-167.99982-96v443.935c0 71.771 38.45722 138.04 100.77182 173.64804l347.228 198.417v-560.00104l-168-95.999v127.999l-112-63.999z" fill="none" stroke="#fff" stroke-width="5"/>
 <path d="m946.39019 617.67646 24 13.19954v-125.19954l-24-16v20.21l-255.999-148.21 1.89981 274.39954 144-82.4 22.10019 16.00046v46.736l87.999-50.947z" fill="none" stroke="#fff" stroke-width="5"/>
 <path d="m974.40619 473.68546-28.016-16.009v-128l140.07991 80.045z" fill="none" stroke="#fff" stroke-width="5"/>
 <path d="m690.39145 183.27638 144 82.40001 24-16.0001-168-95.99991-168 95.99991 24 16.0001z" fill="none" stroke="#fff" stroke-width="5"/>
 <path d="m522.39119 377.67646 24 16 144-82.281 144 82.285 24-16.004 87.999 50.285v29.715l28.016 16.009 112.14391-64.009-140.15991-80 24-16 167.99991 96-167.99991 96-24-16v20.21l-255.999-148.21-256 148.21v-20.21l-24 16-167.99982-96 167.99982-96 24 16-140.1599 80 112.1459 64.009 28.016-16.009v-29.716z" fill="none" stroke="#fff" stroke-width="5"/>
 <path d="m434.39119 565.46546 88 50.947v81.263l-112-63.999 24-16z" fill="none" stroke="#fff" stroke-width="5"/>
 <path d="m968.29 634.376-109.89881 63.29946v-81.263l87.999-50.947v52.211z" fill="none" stroke="#fff" stroke-width="5"/>
 <path d="m690.39119 183.39525v128.00021" fill="#fff" stroke="#fff" stroke-width="5"/>
</svg>
