<svg enable-background="new 0 0 85.3 85.3" version="1.1" viewBox="0 0 85.3 85.3" xmlns="http://www.w3.org/2000/svg">
 <style type="text/css">.st0{fill:#083766;}
	.st1{fill:#FFFFFF;}
	.st2{fill:none;stroke:#1250A9;stroke-width:1.9869;stroke-miterlimit:10;}
	.st3{fill:none;stroke:#1859D1;stroke-width:1.9869;stroke-miterlimit:10;}
	.st4{fill:none;stroke:#1853FF;stroke-width:1.9869;stroke-miterlimit:10;}</style>
 <g transform="matrix(.93103281 0 0 .93103281 2.8949005 2.9880038)">
  <path class="st0" d="m84.7 41.6-3.6-2.2c0-0.4-0.1-0.7-0.1-1l3.1-2.9c0.3-0.3 0.4-0.7 0.4-1.1-0.1-0.4-0.4-0.8-0.8-0.9l-3.9-1.5c-0.1-0.3-0.2-0.7-0.3-1l2.5-3.4c0.3-0.3 0.3-0.8 0.1-1.2s-0.5-0.7-0.9-0.8l-4.2-0.7c-0.2-0.3-0.3-0.6-0.5-0.9l1.8-3.8c0.2-0.4 0.1-0.8-0.1-1.2s-0.6-0.6-1.1-0.5l-4.2 0.1c-0.2-0.3-0.4-0.5-0.7-0.8l1-4.1c0.1-0.4 0-0.9-0.3-1.2s-0.7-0.4-1.2-0.3l-4.1 1c-0.3-0.2-0.5-0.4-0.8-0.7l0.2-4.2c0-0.4-0.2-0.8-0.6-1.1-0.4-0.2-0.9-0.3-1.2-0.1l-3.8 1.7c-0.3-0.2-0.6-0.3-0.9-0.5l-0.7-4.2c-0.1-0.4-0.4-0.8-0.8-0.9-0.4-0.2-0.9-0.1-1.2 0.1l-3.4 2.5c-0.3-0.1-0.7-0.2-1-0.3l-1.5-3.9c-0.1-0.4-0.5-0.7-0.9-0.8s-0.9 0.1-1.1 0.4l-2.9 3.1c-0.3 0-0.7-0.1-1-0.1l-2.2-3.6c-0.3-0.4-0.7-0.6-1.1-0.6s-0.8 0.2-1.1 0.6l-2.2 3.6c-0.3 0-0.7 0.1-1 0.1l-2.9-3.1c-0.3-0.3-0.7-0.4-1.1-0.4-0.4 0.1-0.8 0.4-0.9 0.8l-1.5 3.9c-0.3 0.1-0.7 0.2-1 0.3l-3.4-2.5c-0.3-0.3-0.8-0.3-1.2-0.1s-0.7 0.5-0.7 0.9l-0.7 4.2c-0.3 0.2-0.6 0.3-0.9 0.5l-3.8-1.7c-0.5-0.2-1-0.1-1.3 0.1-0.4 0.2-0.6 0.6-0.6 1.1l0.1 4.2c-0.3 0.2-0.5 0.4-0.8 0.7l-4.1-1c-0.4-0.1-0.9 0-1.2 0.3s-0.4 0.7-0.3 1.2l1 4.1c-0.2 0.3-0.4 0.5-0.7 0.8l-4.2-0.1c-0.4 0-0.8 0.2-1.1 0.5-0.2 0.4-0.3 0.8-0.1 1.2l1.9 3.8c-0.2 0.3-0.3 0.6-0.5 0.9l-4.1 0.7c-0.4 0.1-0.8 0.4-0.9 0.8-0.2 0.4-0.1 0.8 0.1 1.2l2.5 3.4c-0.1 0.3-0.2 0.7-0.3 1l-3.9 1.5c-0.4 0.1-0.7 0.5-0.8 0.9s0.1 0.9 0.4 1.1l3.1 2.9c0 0.3-0.1 0.7-0.1 1l-3.6 2.2c-0.6 0.2-0.8 0.6-0.8 1.1 0 0.4 0.2 0.8 0.6 1l3.6 2.2c0 0.3 0.1 0.7 0.1 1l-3.1 2.9c-0.3 0.3-0.5 0.7-0.4 1.1s0.4 0.8 0.8 0.9l3.9 1.5c0.1 0.3 0.2 0.7 0.3 1l-2.5 3.4c-0.2 0.3-0.3 0.8-0.1 1.2 0.1 0.4 0.5 0.7 0.9 0.7l4.1 0.7c0.2 0.3 0.3 0.6 0.5 0.9l-1.7 3.8c-0.2 0.4-0.1 0.8 0.1 1.2s0.6 0.6 1.1 0.5l4.2-0.1c0.2 0.3 0.4 0.5 0.7 0.8l-1 4.1c-0.1 0.4 0 0.8 0.3 1.1s0.7 0.4 1.2 0.3l4.1-1c0.3 0.2 0.5 0.4 0.8 0.7l-0.1 4.4c0 0.4 0.2 0.8 0.6 1.1 0.3 0.2 0.8 0.3 1.2 0.1l3.8-1.7c0.3 0.2 0.6 0.3 0.9 0.5l0.7 4.1c0.1 0.4 0.4 0.8 0.7 0.9 0.4 0.2 0.8 0.1 1.2-0.1l3.4-2.5c0.3 0.1 0.7 0.2 1 0.3l1.5 3.9c0.1 0.4 0.5 0.7 0.9 0.8s0.9-0.1 1.1-0.4l2.9-3.1c0.4 0 0.7 0.1 1 0.1l2.2 3.6c0.2 0.4 0.6 0.6 1.1 0.6 0.4 0 0.8-0.2 1.1-0.6l2.2-3.6c0.3 0 0.7-0.1 1-0.1l2.9 3.1c0.3 0.3 0.7 0.5 1.1 0.4s0.8-0.4 0.9-0.8l1.5-3.9c0.3-0.1 0.7-0.2 1-0.3l3.4 2.5c0.4 0.2 0.8 0.3 1.2 0.1s0.7-0.5 0.7-0.9l0.7-4.1c0.3-0.2 0.6-0.3 0.9-0.5l3.8 1.7c0.4 0.2 0.8 0.1 1.2-0.1s0.6-0.6 0.5-1.1l-0.2-4.2c0.3-0.2 0.5-0.4 0.8-0.7l4.1 1c0.4 0.1 0.9 0 1.2-0.3s0.4-0.7 0.3-1.1l-1-4.1c0.2-0.3 0.4-0.5 0.7-0.8l4.2 0.1c0.4 0 0.8-0.2 1.1-0.5 0.2-0.4 0.3-0.8 0.1-1.2l-1.7-3.8c0.2-0.3 0.3-0.6 0.5-0.9l4.1-0.7c0.4-0.1 0.8-0.3 0.9-0.7 0.2-0.4 0.1-0.9-0.1-1.2l-2.4-3.4c0.1-0.3 0.2-0.7 0.3-1l3.9-1.5c0.4-0.2 0.7-0.5 0.8-0.9s-0.1-0.8-0.4-1.1l-2.8-3c0-0.3 0.1-0.7 0.1-1l3.6-2.2c0.4-0.2 0.6-0.6 0.6-1-0.1-0.6-0.3-1-0.7-1.2zm-22.3 25c-1.1 0.9-2.4 1.8-3.6 2.6-4.7 2.9-10.3 4.5-16.3 4.5-3.4 0-6.7-0.5-9.8-1.6-0.1 0-0.2-0.1-0.4-0.1-1.1-0.4-2.1-0.8-3.2-1.2-1-0.5-2.1-1.1-3.1-1.8-1.2-0.8-2.4-1.6-3.5-2.5-0.9-0.7-1.7-1.5-2.5-2.3h-0.2c-1-1.1-2-2.2-2.9-3.4h0.1c-3.4-4.6-5.5-10.1-6-16.1v-0.5-0.4-0.4-0.8-0.1c0-0.8 0-1.6 0.1-2.4 0-0.2 0-0.4 0.1-0.7l0.2-0.1c0.1-1.2 0.3-2.4 0.6-3.5 0.4-1.6 0.8-3.2 1.4-4.8 0.5-1.3 1.1-2.6 1.8-3.9l-0.2-0.1c2.3-4 5.5-7.5 9.2-10.1 0.1-0.1 0.3-0.2 0.4-0.3 4.4-3.1 9.6-5 15.3-5.4 0.8-0.1 1.7-0.1 2.5-0.1s1.5 0 2.2 0.1c12.3 0.9 22.6 8.8 26.9 19.8 0.6 1.6 1.1 3.2 1.5 4.8 0.5 2.2 0.7 4.4 0.7 6.7 0.2 9.6-4.3 18.4-11.3 24.1z"/>
  <circle class="st1" cx="42.700001" cy="42.700001" r="33.5"/>
  <ellipse class="st2" cx="42.700001" cy="42.799999" rx="27.200001" ry="13.6"/>
  <ellipse class="st3" transform="matrix(.8957 -.4447 .4447 .8957 -14.4551 23.4064)" cx="42.700001" cy="42.5" rx="13.6" ry="27.200001"/>
  <path class="st4" d="m30.6 67.1c6.7 3.3 17.6-4.9 24.2-18.3s6.6-27-0.1-30.4"/>
  <ellipse class="st4" transform="matrix(.4447 -.8957 .8957 .4447 -14.6426 61.9687)" cx="42.700001" cy="42.799999" rx="27.200001" ry="13.6"/>
  <path class="st3" d="m30.6 18.2c6.7-3.3 17.6 4.9 24.2 18.3s6.6 27-0.1 30.4-17.5-4.9-24.2-18.3"/>
  <path class="st2" d="m69.8 42.8c0 7.5-12.2 13.6-27.2 13.6s-27.2-6.1-27.2-13.6"/>
  <path class="st0" d="m50.1 40.8c0.3-2.2-1.3-3.3-3.6-4.1l0.7-2.9-1.8-0.4-0.7 2.8c-0.5-0.1-0.9-0.2-1.4-0.3l0.7-2.9-1.8-0.4-0.7 2.9c-0.4-0.1-0.8-0.2-1.1-0.3l-2.4-0.6-0.5 1.9 1.3 0.3c0.7 0.2 0.8 0.6 0.8 1l-0.8 3.3s0.1 0 0.2 0.1h-0.2l-1.2 4.7c-0.1 0.2-0.3 0.5-0.8 0.4-0.1 0-1.3-0.3-1.3-0.3l-0.9 2 2.3 0.6c0.4 0.1 0.8 0.2 1.3 0.3l-0.7 3 1.8 0.4 0.7-2.9c0.5 0.1 0.9 0.3 1.4 0.4l-0.7 2.9 1.8 0.4 0.7-2.9c3 0.6 5.3 0.3 6.3-2.4 0.8-2.2 0-3.5-1.6-4.3 1.1-0.4 2-1.1 2.2-2.7zm-4 5.7c-0.5 2.2-4.3 1-5.5 0.7l1-3.9c1.2 0.3 5 0.9 4.5 3.2zm0.5-5.7c-0.5 2-3.6 1-4.6 0.7l0.9-3.5c1 0.2 4.3 0.7 3.7 2.8z"/>
  <path class="st0" d="m50.1 40.8c0.3-2.2-1.3-3.3-3.6-4.1l0.7-2.9-1.8-0.4-0.7 2.8c-0.5-0.1-0.9-0.2-1.4-0.3l0.7-2.9-1.8-0.4-0.7 2.9c-0.4-0.1-0.8-0.2-1.1-0.3l-2.4-0.6-0.5 1.9 1.3 0.3c0.7 0.2 0.8 0.6 0.8 1l-0.8 3.3s0.1 0 0.2 0.1h-0.2l-1.2 4.7c-0.1 0.2-0.3 0.5-0.8 0.4-0.1 0-1.3-0.3-1.3-0.3l-0.9 2 2.3 0.6c0.4 0.1 0.8 0.2 1.3 0.3l-0.7 3 1.8 0.4 0.7-2.9c0.5 0.1 0.9 0.3 1.4 0.4l-0.7 2.9 1.8 0.4 0.7-2.9c3 0.6 5.3 0.3 6.3-2.4 0.8-2.2 0-3.5-1.6-4.3 1.1-0.4 2-1.1 2.2-2.7zm-4 5.7c-0.5 2.2-4.3 1-5.5 0.7l1-3.9c1.2 0.3 5 0.9 4.5 3.2zm0.5-5.7c-0.5 2-3.6 1-4.6 0.7l0.9-3.5c1 0.2 4.3 0.7 3.7 2.8z"/>
 </g>
</svg>
