<svg width="256" height="256" viewBox="0 0 256 256" fill="none" xmlns="http://www.w3.org/2000/svg">
<g clip-path="url(#clip0_300_3866)">
<path fill-rule="evenodd" clip-rule="evenodd" d="M0 0H256V256H0V0Z" fill="url(#paint0_linear_300_3866)"/>
<path d="M39.2589 90.7843V165.172H44.5537V166.956H37.2293V89H44.5513V90.7843H39.2589ZM59.6516 114.367V118.131H59.7577C60.6857 116.756 61.9134 115.616 63.3464 114.796C64.7461 114.009 66.351 113.614 68.1561 113.614C69.8937 113.614 71.4793 113.955 72.9152 114.638C74.3512 115.318 75.442 116.517 76.1853 118.238C77.001 117.019 78.1063 115.944 79.5085 115.013C80.9082 114.079 82.5637 113.614 84.4799 113.614C85.9328 113.614 87.2794 113.794 88.5198 114.15C89.7603 114.511 90.8222 115.084 91.7103 115.873C92.5936 116.661 93.2862 117.692 93.7833 118.964C94.2781 120.237 94.5266 121.767 94.5266 123.564V142.169H86.9801V126.413C86.9801 125.48 86.9439 124.602 86.874 123.776C86.8234 123.027 86.6248 122.296 86.2899 121.626C85.9686 121.015 85.4792 120.51 84.8805 120.173C84.2603 119.817 83.4181 119.637 82.3538 119.637C81.2919 119.637 80.4328 119.844 79.7763 120.254C79.1199 120.668 78.6059 121.204 78.2342 121.867C77.8502 122.568 77.5981 123.334 77.4909 124.127C77.3655 124.972 77.3026 125.826 77.3027 126.681V142.169H69.7538V126.574C69.7538 125.75 69.7369 124.934 69.7031 124.127C69.6757 123.362 69.5224 122.608 69.2494 121.894C68.9889 121.22 68.5244 120.646 67.922 120.254C67.2994 119.844 66.3872 119.637 65.1829 119.637C64.7048 119.657 64.2311 119.739 63.7735 119.881C63.15 120.062 62.5706 120.373 62.0721 120.792C61.5219 121.241 61.0537 121.887 60.6627 122.728C60.2742 123.571 60.0787 124.673 60.0787 126.035V142.169H52.5274V114.367H59.6516ZM99.3654 118.455C100.128 117.287 101.146 116.311 102.341 115.603C103.602 114.865 104.976 114.346 106.407 114.07C107.904 113.766 109.427 113.614 110.954 113.614C112.337 113.614 113.737 113.711 115.153 113.909C116.572 114.106 117.866 114.494 119.036 115.067C120.204 115.639 121.16 116.437 121.908 117.458C122.652 118.482 123.023 119.834 123.023 121.519V135.983C123.023 137.241 123.096 138.44 123.236 139.585C123.376 140.734 123.624 141.594 123.979 142.169H116.326C116.037 141.299 115.858 140.394 115.795 139.478C114.589 140.733 113.172 141.613 111.543 142.113C109.923 142.614 108.239 142.868 106.545 142.869C105.232 142.869 104.011 142.705 102.877 142.381C101.794 142.086 100.782 141.575 99.8987 140.877C99.0415 140.188 98.3583 139.304 97.9053 138.296C97.425 137.258 97.1861 136.019 97.1861 134.586C97.1861 133.009 97.4612 131.71 98.0115 130.686C98.5593 129.665 99.2664 128.851 100.138 128.239C101.006 127.629 101.998 127.174 103.116 126.869C104.231 126.564 105.358 126.323 106.492 126.143C107.626 125.965 108.741 125.821 109.839 125.714C110.94 125.606 111.915 125.445 112.764 125.229C113.616 125.014 114.287 124.7 114.784 124.288C115.281 123.876 115.511 123.276 115.477 122.484C115.477 121.663 115.344 121.007 115.076 120.524C114.828 120.058 114.462 119.668 114.014 119.393C113.54 119.114 113.016 118.932 112.472 118.857C111.847 118.765 111.216 118.72 110.585 118.723C109.096 118.723 107.928 119.045 107.076 119.691C106.226 120.334 105.729 121.411 105.587 122.915H98.038C98.1442 121.124 98.5859 119.637 99.3654 118.455ZM114.277 129.236C113.772 129.403 113.257 129.538 112.735 129.638C112.163 129.749 111.586 129.839 111.007 129.906C110.404 129.979 109.801 130.069 109.2 130.174C108.633 130.282 108.073 130.426 107.525 130.606C107.011 130.768 106.527 131.013 106.091 131.332C105.681 131.637 105.355 132.024 105.107 132.487C104.858 132.955 104.735 133.545 104.735 134.262C104.735 134.944 104.858 135.517 105.107 135.983C105.355 136.451 105.691 136.816 106.118 137.087C106.543 137.355 107.037 137.543 107.607 137.65C108.172 137.757 108.758 137.811 109.359 137.811C110.848 137.811 111.999 137.562 112.815 137.058C113.631 136.558 114.231 135.956 114.625 135.256C115.011 134.559 115.252 133.852 115.342 133.136C115.429 132.417 115.474 131.844 115.474 131.412V128.561C115.125 128.866 114.718 129.096 114.277 129.236ZM142.907 114.367V119.476H137.378V133.241C137.378 134.532 137.59 135.393 138.015 135.822C138.44 136.253 139.292 136.468 140.566 136.468C140.993 136.468 141.398 136.451 141.789 136.414C142.178 136.378 142.552 136.324 142.907 136.253V142.167C142.202 142.281 141.491 142.354 140.778 142.384C140.017 142.418 139.255 142.436 138.493 142.437C137.325 142.437 136.215 142.354 135.17 142.194C134.198 142.058 133.261 141.739 132.406 141.253C131.604 140.782 130.95 140.093 130.519 139.264C130.058 138.403 129.826 137.275 129.826 135.876V119.476H125.256V114.367H129.826V106.031H137.378V114.367H142.904H142.907ZM153.697 114.367V119.53H153.803C154.526 117.784 155.748 116.296 157.312 115.254C158.087 114.737 158.928 114.329 159.812 114.043C160.706 113.756 161.638 113.611 162.575 113.614C163.073 113.614 163.62 113.704 164.224 113.882V120.98C163.802 120.898 163.377 120.835 162.949 120.792C162.473 120.74 161.993 120.713 161.514 120.712C160.131 120.712 158.96 120.946 158.005 121.411C157.089 121.844 156.294 122.5 155.693 123.32C155.09 124.165 154.665 125.126 154.442 126.143C154.187 127.29 154.062 128.462 154.071 129.638V142.167H146.522V114.367H153.697ZM167.414 110.065V103.771H174.963V110.065H167.417H167.414ZM174.963 114.367V142.167H167.417V114.367H174.965H174.963ZM178.897 114.367H187.51L192.349 121.626L197.132 114.367H205.48L196.442 127.381L206.597 142.169H197.981L192.243 133.404L186.499 142.169H178.047L187.935 127.542L178.897 114.367ZM215.814 165.172V90.7843H210.519V89H217.843V166.956H210.519V165.172H215.814Z" fill="#2D2D2D"/>
<path d="M56.9246 193L62.4326 168.52H71.8646L77.3726 193H72.4046L71.4326 188.572H62.8646L61.8926 193H56.9246ZM66.2846 172.624L63.8006 184.252H70.4966L68.0126 172.624H66.2846ZM95.1811 167.8V193H90.3931V192.244C88.7131 193.036 87.2611 193.432 86.0371 193.432C83.4211 193.432 81.5971 192.676 80.5651 191.164C79.5331 189.652 79.0171 187.264 79.0171 184C79.0171 180.712 79.6291 178.324 80.8531 176.836C82.1011 175.324 83.9731 174.568 86.4691 174.568C87.2371 174.568 88.3051 174.688 89.6731 174.928L90.3571 175.072V167.8H95.1811ZM89.8531 188.68L90.3571 188.572V179.104C89.0371 178.864 87.8611 178.744 86.8291 178.744C84.8851 178.744 83.9131 180.472 83.9131 183.928C83.9131 185.8 84.1291 187.132 84.5611 187.924C84.9931 188.716 85.7011 189.112 86.6851 189.112C87.6931 189.112 88.7491 188.968 89.8531 188.68ZM104.319 193H99.4949V175H104.283V176.008C105.939 175.048 107.355 174.568 108.531 174.568C110.475 174.568 111.975 175.132 113.031 176.26C115.239 175.132 117.255 174.568 119.079 174.568C121.455 174.568 123.099 175.264 124.011 176.656C124.947 178.024 125.415 180.22 125.415 183.244V193H120.591V183.388C120.591 181.852 120.423 180.724 120.087 180.004C119.751 179.26 119.079 178.888 118.071 178.888C117.303 178.888 116.367 179.056 115.263 179.392L114.723 179.572C114.819 181.372 114.867 182.74 114.867 183.676V193H110.043V183.748C110.043 181.972 109.887 180.724 109.575 180.004C109.263 179.26 108.579 178.888 107.523 178.888C106.587 178.888 105.663 179.056 104.751 179.392L104.319 179.536V193ZM129.55 193V175H134.374V193H129.55ZM129.55 172.696V167.8H134.374V172.696H129.55ZM143.511 193H138.687V175H143.475V176.008C145.107 175.048 146.607 174.568 147.975 174.568C150.375 174.568 152.031 175.276 152.943 176.692C153.855 178.108 154.311 180.292 154.311 183.244V193H149.487V183.388C149.487 181.852 149.307 180.724 148.947 180.004C148.587 179.26 147.867 178.888 146.787 178.888C145.803 178.888 144.855 179.056 143.943 179.392L143.511 179.536V193ZM171.392 184.828C171.392 187.684 172.844 189.112 175.748 189.112C178.652 189.112 180.104 187.684 180.104 184.828V168.52H185.072V184.72C185.072 187.72 184.292 189.928 182.732 191.344C181.196 192.736 178.868 193.432 175.748 193.432C172.628 193.432 170.288 192.736 168.728 191.344C167.192 189.928 166.424 187.72 166.424 184.72V168.52H171.392V184.828ZM190.051 193V168.52H195.019V193H190.051Z" fill="black"/>
</g>
<defs>
<linearGradient id="paint0_linear_300_3866" x1="128" y1="0" x2="128" y2="256" gradientUnits="userSpaceOnUse">
<stop stop-color="#F0F7F8"/>
<stop offset="1" stop-color="#E2EBEE"/>
</linearGradient>
<clipPath id="clip0_300_3866">
<rect width="256" height="256" fill="white"/>
</clipPath>
</defs>
</svg>
