<svg enable-background="new 0 0 85.3 85.3" version="1.1" viewBox="0 0 85.3 85.3" xmlns="http://www.w3.org/2000/svg">
 <style type="text/css">.st0{fill:#083766;}
	.st1{fill:#FFFFFF;}
	.st2{fill:none;stroke:#1250A9;stroke-width:1.9869;stroke-miterlimit:10;}
	.st3{fill:none;stroke:#1859D1;stroke-width:1.9869;stroke-miterlimit:10;}
	.st4{fill:none;stroke:#1853FF;stroke-width:1.9869;stroke-miterlimit:10;}</style>
 <circle class="st1" cx="42.650002" cy="42.743107" r="31.1896" stroke-width=".931033"/>
 <ellipse class="st2" cx="42.650002" cy="42.836208" rx="25.324093" ry="12.662046" stroke="#062b04"/>
 <ellipse class="st3" transform="rotate(-26.403626)" cx="19.274958" cy="57.067375" rx="12.662278" ry="25.324556" stroke="#095e09"/>
 <path class="st4" d="m31.384504 65.460305c6.23792 3.072409 16.386178-4.56206 22.530994-17.0379 6.144817-12.47584 6.144817-25.137886-0.0931-28.303397"/>
 <ellipse class="st4" transform="rotate(-63.596374)" cx="-19.371878" cy="57.216415" rx="25.324556" ry="12.662278" stroke="#095e09"/>
 <path class="st3" d="m31.384504 19.932801c6.23792-3.072408 16.386178 4.562061 22.530994 17.0379 6.144817 12.47584 6.144817 25.137886-0.0931 28.303398-6.23792 3.165511-16.293074-4.562061-22.530994-17.037901" stroke="#095e09"/>
 <path class="st2" d="m67.880991 42.836208c0 6.982746-11.358601 12.662046-25.324093 12.662046s-25.324092-5.6793-25.324092-12.662046" stroke="#062b04"/>
 <g transform="matrix(.93103281 0 0 .93103281 2.8949005 2.9880038)" stroke-width=".99996476">
  <g stroke-width=".99996476">
   <path class="st0" d="m50.1 40.8c0.3-2.2-1.3-3.3-3.6-4.1l0.7-2.9-1.8-0.4-0.7 2.8c-0.5-0.1-0.9-0.2-1.4-0.3l0.7-2.9-1.8-0.4-0.7 2.9c-0.4-0.1-0.8-0.2-1.1-0.3l-2.4-0.6-0.5 1.9 1.3 0.3c0.7 0.2 0.8 0.6 0.8 1l-0.8 3.3s0.1 0 0.2 0.1h-0.2l-1.2 4.7c-0.1 0.2-0.3 0.5-0.8 0.4-0.1 0-1.3-0.3-1.3-0.3l-0.9 2 2.3 0.6c0.4 0.1 0.8 0.2 1.3 0.3l-0.7 3 1.8 0.4 0.7-2.9c0.5 0.1 0.9 0.3 1.4 0.4l-0.7 2.9 1.8 0.4 0.7-2.9c3 0.6 5.3 0.3 6.3-2.4 0.8-2.2 0-3.5-1.6-4.3 1.1-0.4 2-1.1 2.2-2.7zm-4 5.7c-0.5 2.2-4.3 1-5.5 0.7l1-3.9c1.2 0.3 5 0.9 4.5 3.2zm0.5-5.7c-0.5 2-3.6 1-4.6 0.7l0.9-3.5c1 0.2 4.3 0.7 3.7 2.8z"/>
   <path class="st0" d="m50.1 40.8c0.3-2.2-1.3-3.3-3.6-4.1l0.7-2.9-1.8-0.4-0.7 2.8c-0.5-0.1-0.9-0.2-1.4-0.3l0.7-2.9-1.8-0.4-0.7 2.9c-0.4-0.1-0.8-0.2-1.1-0.3l-2.4-0.6-0.5 1.9 1.3 0.3c0.7 0.2 0.8 0.6 0.8 1l-0.8 3.3s0.1 0 0.2 0.1h-0.2l-1.2 4.7c-0.1 0.2-0.3 0.5-0.8 0.4-0.1 0-1.3-0.3-1.3-0.3l-0.9 2 2.3 0.6c0.4 0.1 0.8 0.2 1.3 0.3l-0.7 3 1.8 0.4 0.7-2.9c0.5 0.1 0.9 0.3 1.4 0.4l-0.7 2.9 1.8 0.4 0.7-2.9c3 0.6 5.3 0.3 6.3-2.4 0.8-2.2 0-3.5-1.6-4.3 1.1-0.4 2-1.1 2.2-2.7zm-4 5.7c-0.5 2.2-4.3 1-5.5 0.7l1-3.9c1.2 0.3 5 0.9 4.5 3.2zm0.5-5.7c-0.5 2-3.6 1-4.6 0.7l0.9-3.5c1 0.2 4.3 0.7 3.7 2.8z"/>
  </g>
 </g>
</svg>
